<?xml version="1.0" standalone="no"?>
<!DOCTYPE svg PUBLIC "-//W3C//DTD SVG 20010904//EN"
 "http://www.w3.org/TR/2001/REC-SVG-20010904/DTD/svg10.dtd">
<svg version="1.0" xmlns="http://www.w3.org/2000/svg"
 width="700.000000pt" height="700.000000pt" viewBox="0 0 700.000000 700.000000"
 preserveAspectRatio="xMidYMid meet">
<metadata>
Created by potrace 1.11, written by Peter Selinger 2001-2013
</metadata>
<g transform="translate(0.000000,700.000000) scale(0.100000,-0.100000)"
fill="#000000" stroke="none">
<path d="M3928 5915 c-2 -2 -35 -6 -74 -9 -39 -4 -80 -8 -90 -10 -17 -3 -60
-7 -219 -21 -22 -2 -58 -6 -80 -9 -22 -3 -65 -8 -95 -11 -30 -3 -71 -8 -90
-10 -19 -2 -64 -7 -100 -10 -36 -3 -76 -8 -90 -10 -14 -2 -56 -6 -95 -10 -38
-3 -83 -8 -100 -10 -16 -2 -61 -7 -100 -11 -38 -3 -81 -7 -95 -9 -14 -1 -59
-6 -100 -9 -41 -4 -86 -9 -100 -11 -29 -4 -99 -12 -190 -21 -105 -10 -133 -13
-175 -18 -22 -3 -67 -8 -100 -12 -33 -3 -76 -7 -95 -9 -19 -2 -66 -7 -105 -11
-93 -9 -93 -9 -102 -18 -4 -4 -8 -31 -9 -59 -11 -339 -16 -491 -19 -535 l-4
-53 67 6 c37 3 81 8 97 10 17 2 62 7 100 10 39 4 84 8 100 10 17 2 61 7 98 10
l68 6 -6 -148 c-5 -153 -11 -317 -20 -558 -3 -77 -7 -205 -10 -285 -8 -229
-15 -434 -20 -575 -2 -71 -7 -202 -10 -290 -3 -88 -8 -214 -10 -280 -2 -66 -7
-192 -10 -280 -10 -294 -15 -419 -21 -600 -3 -99 -7 -199 -8 -222 -1 -23 -4
-44 -6 -47 -3 -3 -35 -7 -70 -11 -36 -3 -81 -8 -100 -10 -19 -2 -80 -9 -136
-14 -201 -20 -214 -23 -215 -40 -3 -63 -8 -186 -14 -368 -4 -116 -8 -224 -10
-238 l-2 -27 76 6 c42 3 90 8 106 10 45 6 144 16 295 31 36 3 81 7 100 10 50
6 126 14 190 20 30 3 71 8 90 11 19 2 64 7 100 9 36 3 81 7 100 10 19 2 82 9
140 15 58 6 121 13 140 15 19 2 64 7 100 10 36 3 80 8 99 10 19 3 67 7 105 10
39 3 78 7 86 10 8 2 49 7 90 11 132 12 243 23 305 29 22 3 63 7 90 10 28 3 66
8 85 10 19 2 69 7 110 10 41 4 86 8 100 10 41 6 121 14 190 20 36 3 76 8 90
10 14 2 57 7 95 10 39 4 84 8 100 10 17 2 60 7 97 10 37 3 76 8 86 10 10 2 58
6 108 10 49 4 98 9 109 11 11 2 55 7 98 10 42 4 77 10 78 13 2 9 5 89 13 316
4 110 8 201 10 202 5 6 166 23 244 26 6 0 12 3 13 6 6 61 8 118 13 281 10 297
17 519 20 578 3 51 -1 57 -34 54 -51 -4 -165 -16 -260 -27 -25 -3 -70 -7 -100
-10 -30 -3 -75 -7 -100 -10 -25 -3 -69 -7 -99 -10 -30 -3 -56 -7 -57 -8 -2 -1
-4 -58 -6 -126 -2 -67 -5 -126 -8 -130 -3 -5 -41 -11 -85 -15 -143 -13 -168
-16 -172 -19 -2 -2 -6 -62 -8 -132 -3 -71 -6 -130 -8 -131 -1 -1 -42 -5 -92
-9 -49 -4 -104 -9 -122 -10 -17 -1 -35 -5 -40 -8 -4 -3 -9 -61 -11 -129 -2
-67 -6 -126 -10 -130 -4 -3 -45 -9 -92 -13 -47 -3 -92 -8 -100 -10 -8 -2 -49
-7 -90 -10 -41 -3 -82 -8 -90 -10 -8 -2 -53 -7 -100 -10 -47 -4 -92 -8 -100
-10 -8 -2 -50 -6 -92 -9 -42 -4 -85 -8 -95 -10 -10 -2 -51 -7 -91 -11 l-74 -7
7 193 c3 107 8 237 10 289 5 106 14 382 20 565 2 66 6 197 10 290 8 230 14
399 20 590 3 88 7 216 10 285 3 69 7 197 10 285 3 88 8 216 10 285 3 69 7 208
11 310 3 102 9 188 12 192 7 6 59 13 167 23 103 9 171 16 200 20 17 2 57 7 90
10 33 4 61 8 62 9 2 2 6 100 18 467 6 165 5 186 -9 186 -9 0 -17 -1 -18 -2z"/>
</g>
</svg>
